<svg width="40" height="40" viewBox="0 0 40 40" fill="none" xmlns="http://www.w3.org/2000/svg">
<g id="Instagram">
<path id="Vector" d="M28 6H14C10.134 6 7 9.13401 7 13V27C7 30.866 10.134 34 14 34H28C31.866 34 35 30.866 35 27V13C35 9.13401 31.866 6 28 6Z" stroke="white" stroke-width="3" stroke-linecap="round" stroke-linejoin="round"/>
<path id="Vector_2" d="M25.9405 18.6932C26.1102 19.8376 25.9147 21.0063 25.3819 22.0331C24.8491 23.06 24.0061 23.8927 22.9727 24.4128C21.9394 24.9329 20.7684 25.1139 19.6262 24.9301C18.4841 24.7464 17.4289 24.2071 16.6109 23.3891C15.7929 22.5711 15.2536 21.5159 15.0699 20.3738C14.8861 19.2316 15.0671 18.0606 15.5872 17.0273C16.1073 15.9939 16.94 15.1509 17.9669 14.6181C18.9937 14.0853 20.1624 13.8898 21.3068 14.0595C22.474 14.2326 23.5547 14.7765 24.3891 15.6109C25.2235 16.4453 25.7674 17.526 25.9405 18.6932Z" stroke="white" stroke-width="3" stroke-linecap="round" stroke-linejoin="round"/>
<path id="Vector_3" d="M29 12H29.014" stroke="white" stroke-width="2.5641" stroke-linecap="round" stroke-linejoin="round"/>
</g>
</svg>
