<svg width="40" height="40" viewBox="0 0 40 40" fill="none" xmlns="http://www.w3.org/2000/svg">
<g id="Linkedin">
<path id="Shape" fill-rule="evenodd" clip-rule="evenodd" d="M13 34H7V16H13V34Z" fill="white"/>
<path id="Shape_2" fill-rule="evenodd" clip-rule="evenodd" d="M9.98216 12H9.94808C8.15755 12 7 10.6661 7 8.99896C7 7.29661 8.1928 6 10.0173 6C11.8418 6 12.9654 7.29661 13 8.99896C13 10.6661 11.8418 12 9.98216 12Z" fill="white"/>
<path id="Shape_3" fill-rule="evenodd" clip-rule="evenodd" d="M34.9998 33.9995H29.1039V24.5907C29.1039 22.2274 28.2507 20.6148 26.1163 20.6148C24.4874 20.6148 23.5171 21.7019 23.091 22.752C22.9351 23.1283 22.8968 23.6526 22.8968 24.1782V34H17C17 34 17.0777 18.0637 17 16.4134H22.8968V18.9044C23.6794 17.707 25.0809 16 28.2114 16C32.0913 16 35 18.5141 35 23.9159L34.9998 33.9995Z" fill="white"/>
</g>
</svg>
