<svg width="40" height="40" viewBox="0 0 40 40" fill="none" xmlns="http://www.w3.org/2000/svg">
<g id="Twitter">
<path id="Twitter_2" fill-rule="evenodd" clip-rule="evenodd" d="M20.0234 13.4484L20.0949 14.6595L18.9027 14.5112C14.563 13.9428 10.7718 12.0149 7.5528 8.77713L5.97908 7.1706L5.57373 8.35696C4.71533 11.0016 5.26375 13.7945 7.05207 15.6729C8.00585 16.7109 7.79125 16.8592 6.14599 16.2413C5.57373 16.0436 5.07299 15.8953 5.02531 15.9695C4.8584 16.1425 5.43066 18.3916 5.8837 19.2814C6.50365 20.5172 7.7674 21.7283 9.15037 22.445L10.3187 23.0135L8.93577 23.0382C7.60049 23.0382 7.5528 23.0629 7.69587 23.582C8.17276 25.1885 10.0565 26.8939 12.1548 27.6354L13.6331 28.1544L12.3455 28.9453C10.438 30.0822 8.1966 30.7249 5.95523 30.7743C4.88224 30.799 4 30.8979 4 30.972C4 31.2192 6.90901 32.6033 8.60195 33.147C13.6808 34.7535 19.7134 34.0615 24.2438 31.318C27.4628 29.3655 30.6818 25.4851 32.184 21.7283C32.9947 19.7263 33.8054 16.0683 33.8054 14.3135C33.8054 13.1766 33.8769 13.0283 35.2122 11.6689C35.9991 10.878 36.7383 10.0129 36.8813 9.76577C37.1198 9.29617 37.0959 9.29617 35.8799 9.71634C33.8531 10.4578 33.567 10.359 34.5684 9.24674C35.3076 8.45583 36.1898 7.02231 36.1898 6.60214C36.1898 6.52799 35.8322 6.65157 35.4268 6.87401C34.9976 7.12117 34.0438 7.49191 33.3285 7.71435L32.0409 8.13452L30.8725 7.3189C30.2288 6.87401 29.3227 6.37969 28.8458 6.2314C27.6297 5.88538 25.7699 5.93481 24.673 6.33026C21.6925 7.44248 19.8088 10.3095 20.0234 13.4484Z" fill="white"/>
</g>
</svg>
