<svg width="87" height="106" viewBox="0 0 87 106" fill="none" xmlns="http://www.w3.org/2000/svg">
<path id="Arrow" d="M6.0109 3.06434C6.04643 1.40787 4.7324 0.0362234 3.07593 0.000689983C1.41945 -0.0348434 0.047812 1.27919 0.0122788 2.93566L6.0109 3.06434ZM85.734 89.4481C87.0861 88.4904 87.4058 86.618 86.4481 85.266L70.8417 63.2332C69.8841 61.8812 68.0117 61.5615 66.6596 62.5192C65.3076 63.4768 64.9879 65.3492 65.9456 66.7013L79.8179 86.2859L60.2332 100.158C58.8812 101.116 58.5615 102.988 59.5192 104.34C60.4768 105.692 62.3493 106.012 63.7013 105.054L85.734 89.4481ZM0.0122788 2.93566C-0.51201 27.3766 15.7186 78.3852 83.4951 89.9572L84.5049 84.0428C20.3003 73.0807 5.53533 25.2341 6.0109 3.06434L0.0122788 2.93566Z" fill="#F78129"/>
</svg>
